<?xml version="1.0" encoding="UTF-8" standalone="no"?>
<svg
   xmlns:dc="http://purl.org/dc/elements/1.1/"
   xmlns:cc="http://creativecommons.org/ns#"
   xmlns:rdf="http://www.w3.org/1999/02/22-rdf-syntax-ns#"
   xmlns:svg="http://www.w3.org/2000/svg"
   xmlns="http://www.w3.org/2000/svg"
   xmlns:sodipodi="http://sodipodi.sourceforge.net/DTD/sodipodi-0.dtd"
   xmlns:inkscape="http://www.inkscape.org/namespaces/inkscape"
   sodipodi:docname="polylang-title.svg"
   inkscape:version="1.0 (4035a4fb49, 2020-05-01)"
   id="svg2053"
   version="1.1"
   viewBox="0 0 148.19954 34.05431"
   height="34.05431mm"
   width="148.19954mm">
  <defs
     id="defs2047" />
  <sodipodi:namedview
     fit-margin-bottom="0"
     fit-margin-right="0"
     fit-margin-left="0"
     fit-margin-top="0"
     inkscape:window-maximized="1"
     inkscape:window-y="-8"
     inkscape:window-x="2552"
     inkscape:window-height="1336"
     inkscape:window-width="2560"
     showgrid="false"
     inkscape:document-rotation="0"
     inkscape:current-layer="layer1"
     inkscape:document-units="mm"
     inkscape:cy="245.74503"
     inkscape:cx="312.04074"
     inkscape:zoom="0.7"
     inkscape:pageshadow="2"
     inkscape:pageopacity="0.0"
     borderopacity="1.0"
     bordercolor="#666666"
     pagecolor="#ffffff"
     id="base" />
  <metadata
     id="metadata2050">
    <rdf:RDF>
      <cc:Work
         rdf:about="">
        <dc:format>image/svg+xml</dc:format>
        <dc:type
           rdf:resource="http://purl.org/dc/dcmitype/StillImage" />
        <dc:title></dc:title>
      </cc:Work>
    </rdf:RDF>
  </metadata>
  <g
     transform="translate(-5.2668128,-42.304893)"
     id="layer1"
     inkscape:groupmode="layer"
     inkscape:label="Calque 1">
    <rect
       y="42.304893"
       x="5.2668128"
       height="34.05431"
       width="148.19954"
       id="rect2093"
       style="opacity:1;fill:#ffffff;fill-opacity:1;stroke:none;stroke-width:0.0324535;stroke-miterlimit:4;stroke-dasharray:none;stroke-opacity:1" />
    <g
       transform="matrix(0.06614583,0,0,0.06614583,2.5839176,35.223706)"
       id="square_1_">
      <path
         id="round_square"
         fill="#6cc179"
         d="m 519.507,563.389 c 0,6.207 -4.518,11.238 -10.091,11.238 H 109.598 c -5.573,0 -10.091,-5.031 -10.091,-11.238 V 165.865 c 0,-6.207 4.518,-11.238 10.091,-11.238 h 399.819 c 5.573,0 10.091,5.031 10.091,11.238 v 397.524 z" />
      <rect
         id="square"
         x="74.5"
         y="153.061"
         display="none"
         fill="#6cc179"
         width="470"
         height="423.151" />
      <path
         id="shadow"
         fill="#56b267"
         d="M 344.438,206.656 519.5,361.406 v 201.781 c 0,0 0.266,5.531 -3.906,9.094 -3.117,2.662 -6.438,2.328 -6.438,2.328 h -235.64 c 0,0 -13.481,-8.708 -49.516,-59.609 -47.667,-67.333 -55,-116 -55,-116 l 56.78,-19.726 78.935,-154.585" />
    </g>
    <g
       transform="matrix(0.06614583,0,0,0.06614583,2.5839176,35.223706)"
       id="Parrot_square">
      <path
         fill="#ef4136"
         d="m 324.635,357.478 c 0,30.625 -4.67,42.997 -19.854,67.138 -8.04,12.783 27.688,26.125 29.22,41.133 0.029,0.287 -0.052,1.537 -0.051,1.824 0.049,14.425 -0.024,11.952 0.025,24.687 0.016,4.232 -0.061,19.714 -0.036,25.739 10e-4,0.198 0,2.125 -2.125,2.125 -3.889,0.188 -5.123,0.125 -9.062,0.125 -86.567,0 -157.863,-69.771 -158.451,-157.351 -0.584,-86.996 72.327,-164.646 169.283,-158.311 6.094,0.398 8.198,0.855 9.194,1.276 0.911,0.385 1.327,0.603 1.552,0.729 0.939,0.526 3.562,4.465 2.922,9.344 -5.094,38.794 -37.485,34.244 -24.705,62.647 8.819,19.607 2.088,56.001 2.088,78.895 z"
         id="path1999" />
      <g
         id="g2007">
        <path
           fill="#d1d3d4"
           d="m 323.238,373.525 c 4.452,0.92 12.036,3.069 24.628,6.427 14.894,3.971 33.311,14.713 48.809,18.931 15.975,4.348 21.209,4.963 39.966,4.01 0.196,-0.01 0.233,0.154 0.131,0.367 -20.932,43.757 -62.583,61.938 -92.952,63.505 -3.068,0.158 -5.027,0.381 -8.033,0.318 -57.576,-1.199 -103.577,-42.591 -106.547,-99.715 -2.577,-49.567 41.665,-119.481 102.481,-122.093 43.333,-1.861 85.294,22.303 105.312,65.702 0.022,0.048 21.307,41.978 1.665,87.874 -0.044,0.102 -0.163,-0.147 -0.245,-0.392 -0.796,-2.388 -7.544,-20.341 -13.852,-35.532 -9.345,-22.504 -25.552,-28.321 -25.752,-28.295 -7.855,1.011 -29.042,-12.55 -36.091,-10.784 -24.693,6.189 -42.755,49.008 -39.52,49.677 z"
           id="path2001" />
        <path
           fill="#414042"
           d="m 324.877,374.284 c 0,0 25.764,8.949 29.603,10.49 11.397,4.576 25.276,23.039 32.101,24.038 8.033,1.176 50.223,-5.551 50.223,-5.551 0,0 -9.666,23.511 -33.079,40.949 -15.965,11.89 -32.785,18.842 -50.321,21.585 -6.017,0.941 -13.029,1.404 -20.083,1.208 -44.152,-1.226 -3.821,-65.114 -3.821,-65.114 l -9.754,-24.123"
           id="path2003" />
        <path
           fill="#414042"
           d="m 321.961,373.539 c 0.571,-5.906 3.532,-13.731 11.621,-24.225 9.666,-12.539 14.303,-17.83 21.095,-21.944 9.388,-5.687 18.21,-0.492 25.362,2.7 7.61,3.397 12.234,4.418 18.231,5.616 4.914,0.982 17.23,13.775 17.23,13.775 0,0 -8.083,-23.042 -16.74,-25.88 -8.657,-2.838 -34.185,-17.36 -47.485,-14.21 -6.954,1.647 -23.761,7.071 -31.887,13.134 -2.053,1.531 -7.57,6.806 -7.221,10.713 0.349,3.908 9.794,40.321 9.794,40.321 z"
           id="path2005" />
      </g>
      <path
         id="stained_1_"
         fill="#efefef"
         d="m 333.583,346.526 c -0.422,59.943 -2.245,59.54 0.382,119.947 0.017,0.383 0.083,0.516 -0.216,0.533 -0.406,0.023 -1.31,-0.057 -1.799,-0.069 -56.362,-1.372 -106.918,-49.178 -106.716,-111.288 0.196,-60.281 48.394,-107.957 105.998,-110.439 0.205,-0.009 1.11,-0.032 1.818,-0.053 0.464,-0.013 0.936,-0.101 0.933,0.033 -0.519,20.092 0.026,40.853 -0.4,101.336 z" />
      <g
         id="g2013">
        <path
           id="shadow_eye_1_"
           fill="#ffffff"
           d="m 329.189,322.307 c 0.758,23.661 -18.019,43.286 -41.938,43.833 -23.92,0.547 -43.925,-18.191 -44.683,-41.852 -0.758,-23.661 18.019,-43.286 41.938,-43.833 23.92,-0.547 43.925,18.191 44.683,41.852 z" />
        <path
           id="pupil_1_"
           d="m 321.594,319.399 c 0.455,14.197 -10.811,25.972 -25.163,26.3 -14.352,0.328 -26.355,-10.914 -26.81,-25.111 -0.455,-14.197 10.811,-25.972 25.163,-26.3 14.352,-0.329 26.355,10.914 26.81,25.111 z" />
        <path
           id="shine_1_"
           fill="#ffffff"
           d="m 315.53,314.655 c 0.227,7.098 -5.406,12.986 -12.582,13.15 -7.176,0.164 -13.178,-5.457 -13.405,-12.556 -0.227,-7.098 5.406,-12.986 12.582,-13.15 7.176,-0.164 13.177,5.458 13.405,12.556 z" />
      </g>
    </g>
    <text
       id="text2091"
       y="66.145828"
       x="41.199406"
       style="font-style:normal;font-variant:normal;font-weight:normal;font-stretch:normal;font-size:19.7556px;line-height:1.25;font-family:Verdana;-inkscape-font-specification:Verdana;letter-spacing:0px;word-spacing:0px;fill:#000000;fill-opacity:1;stroke:none;stroke-width:0.264583"
       xml:space="preserve"><tspan
         style="font-style:normal;font-variant:normal;font-weight:normal;font-stretch:normal;font-size:19.7556px;font-family:sans-serif;-inkscape-font-specification:sans-serif;stroke-width:0.264583"
         y="66.145828"
         x="41.199406"
         id="tspan2089"
         sodipodi:role="line">POLYLANG</tspan></text>
  </g>
</svg>
